<?xml version="1.0" encoding="UTF-8"?>
<svg version="1.1" xmlns="http://www.w3.org/2000/svg" width="512" height="512">
<path d="M0 0 C11.31417142 7.85645559 17.71082067 18.78165092 21.95703125 31.71484375 C21.95703125 32.70484375 21.95703125 33.69484375 21.95703125 34.71484375 C22.61703125 34.71484375 23.27703125 34.71484375 23.95703125 34.71484375 C24.10398437 34.1321875 24.2509375 33.54953125 24.40234375 32.94921875 C28.18524798 19.12205157 34.72012533 6.90766972 47.20703125 -0.78515625 C55.1950264 -5.27514045 61.79555578 -6.12461271 70.95703125 -5.28515625 C77.80463767 -3.31806434 82.58710387 1.2268937 86.20703125 7.27734375 C90.16008393 15.04226865 90.13015143 24.34841241 87.89453125 32.71484375 C84.93710086 41.33364088 80.06371269 49.21756198 74.95703125 56.71484375 C75.60438232 56.82965088 76.2517334 56.94445801 76.91870117 57.06274414 C113.13808303 63.60018129 147.33187094 75.88890603 169.64453125 106.90234375 C183.81672936 128.46873217 192.09953263 151.95107204 193.53295898 177.80224609 C194.12602933 189.77078565 194.12602933 189.77078565 200.796875 199.421875 C215.26870126 214.78346996 215.56216343 238.98921953 215.08886719 258.68652344 C214.40510382 274.39282124 209.33454103 290.01768327 199.984375 302.67578125 C198.36300971 307.47206337 200.31519809 311.08493277 201.95703125 315.71484375 C202.47401791 317.47818126 202.97396234 319.24660181 203.45703125 321.01953125 C203.70308105 321.92243896 203.94913086 322.82534668 204.20263672 323.75561523 C208.72533908 340.74721774 211.62144664 357.09553202 210.95703125 374.71484375 C212.02824219 374.83601563 213.09945313 374.9571875 214.203125 375.08203125 C221.33064296 376.28354833 226.33458783 380.3832008 230.7734375 385.96484375 C234.34694346 391.24844332 235.44253526 398.08435269 234.60546875 404.34375 C233.91330274 407.89239214 233.10087443 411.28331422 231.95703125 414.71484375 C232.78203125 414.90046875 233.60703125 415.08609375 234.45703125 415.27734375 C240.98374029 417.95795639 246.48385193 422.80329307 249.33203125 429.3515625 C251.30004934 436.79313091 250.93877406 444.86064854 247.33984375 451.71875 C238.95143908 463.82743584 223.98139769 465.96005406 210.52685547 469.06396484 C208.53165126 469.52806566 206.54552054 470.02134558 204.55859375 470.51953125 C203.38635254 470.79780762 202.21411133 471.07608398 201.00634766 471.36279297 C197.14517891 473.07481479 196.0228717 475.10220342 193.95703125 478.71484375 C191.9921875 480.76171875 191.9921875 480.76171875 190.01953125 482.46484375 C189.04693359 483.32335937 189.04693359 483.32335937 188.0546875 484.19921875 C182.0447858 488.54156858 174.51822593 489.3386542 167.30078125 488.3515625 C160.38008562 486.61070851 154.56665579 483.00271168 150.796875 476.80859375 C149.52067775 474.0068956 148.95703125 471.80085829 148.95703125 468.71484375 C148.34520996 468.93100342 147.73338867 469.14716309 147.10302734 469.36987305 C134.13410995 473.91539287 121.25326973 477.85792992 107.8046875 480.70703125 C106.59268677 480.96504517 106.59268677 480.96504517 105.35620117 481.22827148 C103.74457689 481.55512273 102.126999 481.85377477 100.50512695 482.12524414 C95.28302759 483.0721231 92.61727777 484.2734712 89.01953125 488.40234375 C84.3836602 493.35915972 79.77128779 497.21607444 73.95703125 500.71484375 C73.00441406 501.29621094 72.05179687 501.87757813 71.0703125 502.4765625 C61.29994753 507.73564226 50.54755796 508.79275044 39.83203125 505.859375 C32.16136317 502.43329917 26.84761454 496.03829465 22.95703125 488.71484375 C22.60511719 489.29492188 22.25320312 489.875 21.890625 490.47265625 C17.00790888 498.19831152 11.90981651 503.89972892 2.95703125 506.71484375 C0.21380057 507.15880725 -2.45465839 507.23989676 -5.23046875 507.21484375 C-5.97369385 507.20912354 -6.71691895 507.20340332 -7.48266602 507.19750977 C-22.25621434 506.72423354 -33.40550964 497.48116873 -43.71875 487.73046875 C-49.38873578 482.81330461 -54.6281583 481.83189783 -61.85546875 480.52734375 C-72.03949715 478.57156434 -81.68834706 475.75535306 -91.4621582 472.3059082 C-92.4130835 471.97034912 -93.36400879 471.63479004 -94.34375 471.2890625 C-95.18075439 470.98572998 -96.01775879 470.68239746 -96.88012695 470.36987305 C-99.14486149 469.56991651 -99.14486149 469.56991651 -102.04296875 469.71484375 C-102.49736328 470.71064453 -102.49736328 470.71064453 -102.9609375 471.7265625 C-106.52790838 479.24463958 -109.97995688 484.61368534 -118.04296875 487.71484375 C-126.0891264 489.58712274 -134.10096284 488.67815859 -141.29296875 484.52734375 C-145.73312046 481.50119573 -149.62556891 477.54964342 -152.04296875 472.71484375 C-154.43974701 471.96835928 -156.78837783 471.3399762 -159.2265625 470.76171875 C-160.72732649 470.38586739 -162.22797368 470.00954937 -163.72851562 469.6328125 C-166.08990389 469.04971157 -168.45226241 468.47162789 -170.81713867 467.90283203 C-182.70700774 465.02493327 -193.48277835 462.26697487 -200.88671875 451.7421875 C-204.61494304 445.20519963 -204.85206388 439.11720345 -204.04296875 431.71484375 C-202.04189512 424.60423261 -198.50445088 420.61389029 -192.2265625 416.87109375 C-190.17973812 415.78726545 -188.12291419 414.73359254 -186.04296875 413.71484375 C-186.36652344 413.03035156 -186.69007813 412.34585937 -187.0234375 411.640625 C-189.44639415 404.68738924 -189.25905002 395.27853618 -186.140625 388.51953125 C-181.92215492 381.583826 -176.97334396 376.94297135 -169.04296875 374.71484375 C-167.72296875 374.71484375 -166.40296875 374.71484375 -165.04296875 374.71484375 C-165.07777344 374.03164063 -165.11257812 373.3484375 -165.1484375 372.64453125 C-165.68635907 352.61335648 -161.92265755 330.9086271 -154.29296875 312.36328125 C-153.0353345 308.69256127 -152.69876131 307.27484518 -154.04296875 303.71484375 C-155.23546973 301.58651872 -155.23546973 301.58651872 -156.73046875 299.46484375 C-169.74738976 278.31234711 -172.18034098 250.29245012 -167.015625 226.390625 C-164.12528009 215.46767494 -159.71203648 203.18144477 -151.41796875 195.18359375 C-147.50957435 190.58413491 -147.935807 184.40883123 -147.54296875 178.65234375 C-144.51322785 144.28712413 -132.8675186 110.86421905 -106.04296875 87.71484375 C-83.11321112 69.41765469 -57.5970606 61.77888618 -29.04296875 56.71484375 C-29.49027344 56.04839844 -29.93757812 55.38195313 -30.3984375 54.6953125 C-38.34213719 42.58498142 -44.63564652 30.53279519 -43.04296875 15.71484375 C-41.32516847 8.07217543 -38.35110353 2.44594484 -32.04296875 -2.28515625 C-21.93560125 -8.67961324 -9.54005922 -6.00129921 0 0 Z " fill="#FEF69B" transform="translate(233.04296875,5.28515625)"/>
<path d="M0 0 C11.31417142 7.85645559 17.71082067 18.78165092 21.95703125 31.71484375 C21.95703125 32.70484375 21.95703125 33.69484375 21.95703125 34.71484375 C22.61703125 34.71484375 23.27703125 34.71484375 23.95703125 34.71484375 C24.10398437 34.1321875 24.2509375 33.54953125 24.40234375 32.94921875 C28.18524798 19.12205157 34.72012533 6.90766972 47.20703125 -0.78515625 C55.1950264 -5.27514045 61.79555578 -6.12461271 70.95703125 -5.28515625 C77.80463767 -3.31806434 82.58710387 1.2268937 86.20703125 7.27734375 C90.16008393 15.04226865 90.13015143 24.34841241 87.89453125 32.71484375 C84.93710086 41.33364088 80.06371269 49.21756198 74.95703125 56.71484375 C75.60438232 56.82965088 76.2517334 56.94445801 76.91870117 57.06274414 C113.13808303 63.60018129 147.33187094 75.88890603 169.64453125 106.90234375 C183.81672936 128.46873217 192.09953263 151.95107204 193.53295898 177.80224609 C194.12602933 189.77078565 194.12602933 189.77078565 200.796875 199.421875 C215.26870126 214.78346996 215.56216343 238.98921953 215.08886719 258.68652344 C214.40510382 274.39282124 209.33454103 290.01768327 199.984375 302.67578125 C198.36300971 307.47206337 200.31519809 311.08493277 201.95703125 315.71484375 C202.47401791 317.47818126 202.97396234 319.24660181 203.45703125 321.01953125 C203.70308105 321.92243896 203.94913086 322.82534668 204.20263672 323.75561523 C208.72533908 340.74721774 211.62144664 357.09553202 210.95703125 374.71484375 C212.02824219 374.83601563 213.09945313 374.9571875 214.203125 375.08203125 C221.33064296 376.28354833 226.33458783 380.3832008 230.7734375 385.96484375 C234.34694346 391.24844332 235.44253526 398.08435269 234.60546875 404.34375 C233.91330274 407.89239214 233.10087443 411.28331422 231.95703125 414.71484375 C232.78203125 414.90046875 233.60703125 415.08609375 234.45703125 415.27734375 C240.98374029 417.95795639 246.48385193 422.80329307 249.33203125 429.3515625 C251.30004934 436.79313091 250.93877406 444.86064854 247.33984375 451.71875 C238.95143908 463.82743584 223.98139769 465.96005406 210.52685547 469.06396484 C208.53165126 469.52806566 206.54552054 470.02134558 204.55859375 470.51953125 C203.38635254 470.79780762 202.21411133 471.07608398 201.00634766 471.36279297 C197.14517891 473.07481479 196.0228717 475.10220342 193.95703125 478.71484375 C191.9921875 480.76171875 191.9921875 480.76171875 190.01953125 482.46484375 C189.04693359 483.32335937 189.04693359 483.32335937 188.0546875 484.19921875 C182.0447858 488.54156858 174.51822593 489.3386542 167.30078125 488.3515625 C160.38008562 486.61070851 154.56665579 483.00271168 150.796875 476.80859375 C149.52067775 474.0068956 148.95703125 471.80085829 148.95703125 468.71484375 C148.34520996 468.93100342 147.73338867 469.14716309 147.10302734 469.36987305 C134.13410995 473.91539287 121.25326973 477.85792992 107.8046875 480.70703125 C106.59268677 480.96504517 106.59268677 480.96504517 105.35620117 481.22827148 C103.74457689 481.55512273 102.126999 481.85377477 100.50512695 482.12524414 C95.28302759 483.0721231 92.61727777 484.2734712 89.01953125 488.40234375 C84.3836602 493.35915972 79.77128779 497.21607444 73.95703125 500.71484375 C73.00441406 501.29621094 72.05179687 501.87757813 71.0703125 502.4765625 C61.29994753 507.73564226 50.54755796 508.79275044 39.83203125 505.859375 C32.16136317 502.43329917 26.84761454 496.03829465 22.95703125 488.71484375 C22.60511719 489.29492188 22.25320312 489.875 21.890625 490.47265625 C17.00790888 498.19831152 11.90981651 503.89972892 2.95703125 506.71484375 C0.21380057 507.15880725 -2.45465839 507.23989676 -5.23046875 507.21484375 C-5.97369385 507.20912354 -6.71691895 507.20340332 -7.48266602 507.19750977 C-22.25621434 506.72423354 -33.40550964 497.48116873 -43.71875 487.73046875 C-49.38873578 482.81330461 -54.6281583 481.83189783 -61.85546875 480.52734375 C-72.03949715 478.57156434 -81.68834706 475.75535306 -91.4621582 472.3059082 C-92.4130835 471.97034912 -93.36400879 471.63479004 -94.34375 471.2890625 C-95.18075439 470.98572998 -96.01775879 470.68239746 -96.88012695 470.36987305 C-99.14486149 469.56991651 -99.14486149 469.56991651 -102.04296875 469.71484375 C-102.49736328 470.71064453 -102.49736328 470.71064453 -102.9609375 471.7265625 C-106.52790838 479.24463958 -109.97995688 484.61368534 -118.04296875 487.71484375 C-126.0891264 489.58712274 -134.10096284 488.67815859 -141.29296875 484.52734375 C-145.73312046 481.50119573 -149.62556891 477.54964342 -152.04296875 472.71484375 C-154.43974701 471.96835928 -156.78837783 471.3399762 -159.2265625 470.76171875 C-160.72732649 470.38586739 -162.22797368 470.00954937 -163.72851562 469.6328125 C-166.08990389 469.04971157 -168.45226241 468.47162789 -170.81713867 467.90283203 C-182.70700774 465.02493327 -193.48277835 462.26697487 -200.88671875 451.7421875 C-204.61494304 445.20519963 -204.85206388 439.11720345 -204.04296875 431.71484375 C-202.04189512 424.60423261 -198.50445088 420.61389029 -192.2265625 416.87109375 C-190.17973812 415.78726545 -188.12291419 414.73359254 -186.04296875 413.71484375 C-186.36652344 413.03035156 -186.69007813 412.34585937 -187.0234375 411.640625 C-189.44639415 404.68738924 -189.25905002 395.27853618 -186.140625 388.51953125 C-181.92215492 381.583826 -176.97334396 376.94297135 -169.04296875 374.71484375 C-167.72296875 374.71484375 -166.40296875 374.71484375 -165.04296875 374.71484375 C-165.07777344 374.03164063 -165.11257812 373.3484375 -165.1484375 372.64453125 C-165.68635907 352.61335648 -161.92265755 330.9086271 -154.29296875 312.36328125 C-153.0353345 308.69256127 -152.69876131 307.27484518 -154.04296875 303.71484375 C-155.23546973 301.58651872 -155.23546973 301.58651872 -156.73046875 299.46484375 C-169.74738976 278.31234711 -172.18034098 250.29245012 -167.015625 226.390625 C-164.12528009 215.46767494 -159.71203648 203.18144477 -151.41796875 195.18359375 C-147.50957435 190.58413491 -147.935807 184.40883123 -147.54296875 178.65234375 C-144.51322785 144.28712413 -132.8675186 110.86421905 -106.04296875 87.71484375 C-83.11321112 69.41765469 -57.5970606 61.77888618 -29.04296875 56.71484375 C-29.49027344 56.04839844 -29.93757812 55.38195313 -30.3984375 54.6953125 C-38.34213719 42.58498142 -44.63564652 30.53279519 -43.04296875 15.71484375 C-41.32516847 8.07217543 -38.35110353 2.44594484 -32.04296875 -2.28515625 C-21.93560125 -8.67961324 -9.54005922 -6.00129921 0 0 Z M-28.91796875 13.33984375 C-32.0819052 22.8316531 -29.36237198 30.99492174 -25.04296875 39.71484375 C-19.95816001 48.47316737 -13.7374501 55.42589412 -6.44921875 62.3515625 C-4.04296875 64.71484375 -4.04296875 64.71484375 -3.04296875 66.71484375 C-3.91695312 66.68003906 -4.7909375 66.64523438 -5.69140625 66.609375 C-39.91421619 65.85604271 -76.73077372 78.09845491 -101.63427734 101.89477539 C-121.35389857 121.33536998 -134.46378983 149.32991413 -135.1015625 177.28295898 C-135.10542969 178.18860596 -135.10929687 179.09425293 -135.11328125 180.02734375 C-135.12359375 180.95804688 -135.13390625 181.88875 -135.14453125 182.84765625 C-135.16015586 184.75906669 -135.15233984 186.67081235 -135.12109375 188.58203125 C-135.26954526 196.23788753 -137.72898443 199.45111686 -143.04296875 204.71484375 C-150.34765063 215.02815898 -155.74879229 227.94758543 -156.04296875 240.71484375 C-156.09324219 241.95621094 -156.14351562 243.19757813 -156.1953125 244.4765625 C-156.75520853 263.95552583 -152.45251537 282.7257057 -141.90185547 299.26171875 C-140.05006079 302.27681037 -139.02718895 304.2335599 -139.14453125 307.8125 C-140.07184086 310.80811322 -141.10220859 313.68830791 -142.29296875 316.58984375 C-149.94751515 336.01380832 -154.26371733 354.9023394 -154.10546875 375.83984375 C-154.10095703 376.98710937 -154.09644531 378.134375 -154.09179688 379.31640625 C-154.08013214 382.11594188 -154.06376489 384.91536361 -154.04296875 387.71484375 C-154.80996094 387.39386719 -155.57695312 387.07289063 -156.3671875 386.7421875 C-159.64630659 385.48319725 -161.54462012 385.23467825 -165.04296875 385.71484375 C-170.20594217 388.17854399 -174.68150457 390.95620032 -176.6796875 396.47265625 C-178.84207321 405.84876067 -171.81247083 414.95283461 -167.10546875 422.58984375 C-166.08453125 424.13671875 -166.08453125 424.13671875 -165.04296875 425.71484375 C-166.00396484 425.39 -166.00396484 425.39 -166.984375 425.05859375 C-176.14844467 422.03433066 -176.14844467 422.03433066 -185.23046875 424.33984375 C-188.9830412 427.50868271 -191.62600248 430.10242244 -192.42578125 435.11328125 C-192.61761905 439.37208045 -192.28754403 442.18656114 -190.48046875 446.08984375 C-185.19194154 451.78518074 -179.00730747 453.50488277 -171.66796875 455.15234375 C-169.89671429 455.58159933 -168.12588733 456.01262233 -166.35546875 456.4453125 C-163.75801371 457.07057324 -161.1600413 457.6882635 -158.5546875 458.27978516 C-143.92804903 461.64020148 -143.92804903 461.64020148 -140.29296875 467.27734375 C-139.70515625 468.43943359 -139.70515625 468.43943359 -139.10546875 469.625 C-137.33069983 473.11581387 -134.46844724 475.00210451 -131.04296875 476.71484375 C-125.78912695 477.5759506 -121.98907606 477.15276761 -117.60546875 474.02734375 C-113.21279971 470.2809123 -112.23282554 467.6450544 -111.66796875 461.90234375 C-111.72827566 458.58898823 -112.52243519 456.37324419 -114.06640625 453.453125 C-114.43427246 452.74841064 -114.80213867 452.04369629 -115.18115234 451.31762695 C-115.46555176 450.7887085 -115.74995117 450.25979004 -116.04296875 449.71484375 C-115.03878906 450.23433594 -114.03460938 450.75382812 -113 451.2890625 C-100.42123704 457.73645307 -88.18257434 462.57091237 -74.48046875 466.08984375 C-73.42021484 466.36521973 -72.35996094 466.6405957 -71.26757812 466.92431641 C-69.76227539 467.2962915 -69.76227539 467.2962915 -68.2265625 467.67578125 C-67.32478271 467.90056152 -66.42300293 468.1253418 -65.49389648 468.35693359 C-62.98278329 468.72363266 -61.42656313 468.51828692 -59.04296875 467.71484375 C-59.35935303 467.20848389 -59.6757373 466.70212402 -60.00170898 466.18041992 C-65.85732094 456.75573358 -71.49794895 447.29235836 -76.29296875 437.27734375 C-76.67509521 436.49190186 -77.05722168 435.70645996 -77.45092773 434.8972168 C-80.67650344 427.98117863 -80.67650344 427.98117863 -80.04296875 423.71484375 C-78.85546875 421.90234375 -78.85546875 421.90234375 -77.04296875 420.71484375 C-73.91882561 420.40242944 -72.04471099 420.714263 -69.04296875 421.71484375 C-68.33249676 423.69970495 -67.67917892 425.70494796 -67.04296875 427.71484375 C-61.50776213 439.69782512 -55.05609183 451.21837442 -47.04296875 461.71484375 C-46.33785156 462.64167969 -45.63273438 463.56851562 -44.90625 464.5234375 C-35.55853939 476.3549204 -23.28926227 491.27303108 -7.6484375 494.15625 C-2.81178721 494.3984732 0.38562205 493.98811398 4.26953125 490.96484375 C15.4174544 479.70454234 16.21881673 460.92513178 16.57910156 445.92163086 C16.75556179 440.01704794 16.75556179 440.01704794 18.95703125 436.71484375 C20.83203125 436.3515625 20.83203125 436.3515625 22.95703125 436.40234375 C23.65828125 436.40621094 24.35953125 436.41007812 25.08203125 436.4140625 C26.95703125 436.71484375 26.95703125 436.71484375 28.95703125 438.71484375 C29.32006836 441.13818359 29.32006836 441.13818359 29.484375 444.17578125 C29.55462891 445.28824219 29.62488281 446.40070313 29.69726562 447.546875 C29.8265958 449.86969621 29.95425923 452.19261095 30.08007812 454.515625 C30.9640324 468.4199869 33.5232649 482.69842806 43.95703125 492.71484375 C48.61420396 495.04343011 54.0216147 494.35734938 58.828125 492.76171875 C71.76958148 486.78080659 81.46857578 476.95374848 89.95703125 465.71484375 C90.65957031 464.84988281 91.36210937 463.98492187 92.0859375 463.09375 C101.35449113 451.40442923 108.45494578 438.01458248 114.96777344 424.63525391 C115.95703125 422.71484375 115.95703125 422.71484375 116.95703125 421.71484375 C118.47631163 421.64304411 119.99870607 421.63092368 121.51953125 421.65234375 C122.34582031 421.66136719 123.17210937 421.67039062 124.0234375 421.6796875 C124.66152344 421.69128906 125.29960937 421.70289063 125.95703125 421.71484375 C126.31600997 427.92793706 125.48637643 431.93894605 122.70703125 437.46484375 C122.36148193 438.17713135 122.01593262 438.88941895 121.65991211 439.62329102 C117.31550087 448.35064276 112.18391861 456.6456712 107.04516602 464.92163086 C105.9200386 466.72076972 105.9200386 466.72076972 104.95703125 468.71484375 C113.076422 468.29459735 120.45205199 466.38850121 128.20703125 464.02734375 C129.99403442 463.49040894 129.99403442 463.49040894 131.81713867 462.94262695 C142.35543085 459.71353353 152.11405144 455.67268144 161.95703125 450.71484375 C161.29703125 451.72546875 160.63703125 452.73609375 159.95703125 453.77734375 C157.80256789 457.60921073 157.33403726 460.2760116 157.95703125 464.71484375 C159.61715745 469.29713086 161.50515516 473.34978458 165.95703125 475.71484375 C169.56219299 477.08231889 173.1463171 477.04335359 176.95703125 476.71484375 C182.063162 474.01159806 185.7335694 470.58222715 188.02050781 465.22241211 C190.91761551 461.47100097 194.26482487 461.081727 198.75390625 460.03125 C199.62090149 459.80839828 200.48789673 459.58554657 201.38116455 459.35594177 C205.08162529 458.40546787 208.79298716 457.50114732 212.50390625 456.5925293 C215.21652053 455.9213201 217.92245673 455.22682975 220.62890625 454.53125 C221.45831726 454.33729141 222.28772827 454.14333282 223.14227295 453.9434967 C228.83312138 452.47772593 233.06933523 450.2166097 236.95703125 445.71484375 C238.40636108 441.36685427 238.4737219 437.2588903 237.95703125 432.71484375 C235.34382286 427.58175584 232.41765884 424.53505295 226.95703125 422.71484375 C222.98993279 422.48148502 219.54108087 422.72235719 215.71875 423.7265625 C214.47738281 424.05269531 213.23601562 424.37882812 211.95703125 424.71484375 C212.25472412 424.18528076 212.55241699 423.65571777 212.85913086 423.11010742 C214.20693637 420.70900809 215.55077266 418.30571006 216.89453125 415.90234375 C217.59739258 414.65227539 217.59739258 414.65227539 218.31445312 413.37695312 C218.98637695 412.17329102 218.98637695 412.17329102 219.671875 410.9453125 C220.29243774 409.83772583 220.29243774 409.83772583 220.92553711 408.70776367 C223.04953713 404.60404481 223.34481257 401.2906633 222.95703125 396.71484375 C220.38125801 392.09621588 218.03782335 388.40844112 212.95703125 386.71484375 C211.06232309 386.64629425 209.16534785 386.63004003 207.26953125 386.65234375 C205.77873047 386.66587891 205.77873047 386.66587891 204.2578125 386.6796875 C203.49855469 386.69128906 202.73929687 386.70289063 201.95703125 386.71484375 C201.95815918 386.04356445 201.95928711 385.37228516 201.96044922 384.68066406 C201.8657469 360.32981676 198.1483973 337.81922636 188.765625 315.26293945 C188.38664062 314.34085693 188.00765625 313.41877441 187.6171875 312.46875 C187.27308838 311.66767822 186.92898926 310.86660645 186.57446289 310.04125977 C185.62582639 306.46689945 186.33954154 303.81720792 188.12109375 300.63671875 C188.60320312 299.92 189.0853125 299.20328125 189.58203125 298.46484375 C201.78388456 278.706662 206.30200727 255.21498844 202.30078125 232.26171875 C199.71951696 221.62512969 195.34830825 211.03787955 187.64453125 203.15234375 C181.94511735 196.45553242 182.61009207 187.87324894 182.14453125 179.49169922 C179.98252416 147.47259948 167.63986985 119.1511327 143.82177734 97.33398438 C124.41220948 80.48084821 98.6986619 72.3573366 73.76953125 68.27734375 C72.26616211 68.03129395 72.26616211 68.03129395 70.73242188 67.78027344 C63.77487308 66.74841401 56.98414932 66.5401557 49.95703125 66.71484375 C53.4806359 62.59918867 57.01296264 58.62301785 60.95703125 54.90234375 C69.63443726 46.2752902 76.95269197 33.7914133 77.51953125 21.33984375 C77.17874971 15.51815902 75.11110153 11.68427944 70.76953125 7.71484375 C66.55795683 6.21739507 63.23034025 6.48095192 58.95703125 7.71484375 C42.5151934 15.5589124 34.06268905 34.5836236 27.95703125 50.71484375 C26.52017034 55.02096418 25.19065695 59.34635746 23.95703125 63.71484375 C22.60205905 61.1097419 21.48711542 58.54603585 20.546875 55.765625 C14.44195857 38.16436442 7.03260755 17.86380391 -10.35546875 8.46484375 C-18.14314024 5.17999653 -23.7838202 6.15203578 -28.91796875 13.33984375 Z " fill="#040402" transform="translate(233.04296875,5.28515625)"/>
<path d="M0 0 C0.85012319 -0.00694553 1.70024637 -0.01389106 2.57613087 -0.02104706 C5.42366105 -0.03933788 8.27036006 -0.02904704 11.11791992 -0.01878357 C13.15978622 -0.02584094 15.20164728 -0.03458519 17.24349976 -0.04489136 C22.78890264 -0.06741415 28.33402051 -0.06443899 33.87945175 -0.05556989 C38.50693232 -0.05046431 43.13435912 -0.05774898 47.76183414 -0.06504196 C58.67647553 -0.0820498 69.59097713 -0.07846572 80.50561523 -0.06175232 C91.77164568 -0.04482413 103.03728886 -0.06067332 114.30327702 -0.0929752 C123.97219495 -0.11964928 133.64099216 -0.12695316 143.3099432 -0.11846012 C149.08648714 -0.11352529 154.86279795 -0.11577692 160.63931274 -0.13624763 C166.06984366 -0.15457072 171.49981622 -0.14868707 176.93031693 -0.12404823 C178.92456405 -0.11902993 180.91885348 -0.12255642 182.91306686 -0.13519669 C185.63328312 -0.15107625 188.35164916 -0.13622521 191.07177734 -0.11352539 C191.86311978 -0.12536112 192.65446222 -0.13719685 193.46978474 -0.14939123 C197.52853389 -0.08045947 199.3104884 0.33008318 202.49404907 2.93710423 C207.62555688 9.41497181 207.99276553 15.96421019 207.84838867 24.0146637 C207.85161133 24.91314026 207.85483398 25.81161682 207.8581543 26.73731995 C207.75036477 40.20121187 203.35832076 52.57051886 193.93432617 62.32325745 C182.49559612 72.77460526 170.83421054 75.16837242 155.73413086 74.65089417 C139.45643851 73.64212558 125.34770772 67.00583047 114.22338867 55.2021637 C110.67936565 50.8348832 108.64064797 45.68505066 106.53588867 40.5146637 C106.17237305 39.63552307 105.80885742 38.75638245 105.43432617 37.8506012 C103.25004976 32.17148251 103.44512472 26.50508433 103.53588867 20.5146637 C98.25588867 20.5146637 92.97588867 20.5146637 87.53588867 20.5146637 C87.63901367 21.6696637 87.74213867 22.8246637 87.84838867 24.0146637 C87.83114173 34.91473407 83.26658053 46.09676337 76.53588867 54.5146637 C75.81401367 55.5459137 75.09213867 56.5771637 74.34838867 57.6396637 C64.92136139 68.51700286 48.15457361 73.52053788 34.32739258 74.70362854 C20.55858945 75.5121845 10.27610432 73.45354434 -0.88598633 64.8427887 C-8.37954005 58.07588261 -12.71965941 50.13468988 -15.46411133 40.5146637 C-15.6884082 39.80052307 -15.91270508 39.08638245 -16.14379883 38.3506012 C-19.10212717 27.53041399 -18.92945185 14.49008465 -13.46411133 4.5146637 C-9.32963703 0.2451624 -5.67710678 -0.05911943 0 0 Z " fill="#010100" transform="translate(160.464111328125,185.48533630371094)"/>
<path d="M0 0 C8.16704304 3.79496433 12.04841563 14.45525162 16 22 C17.08701474 19.86071528 18.12795027 17.71581572 19.11328125 15.52734375 C20.79693164 11.891317 22.27601966 8.72398034 25.125 5.875 C31.11817184 4.05099118 36.86588289 3.93294144 42.5 6.75 C45.51474253 9.46326827 47.6843446 11.43640465 48.50390625 15.49609375 C48.72459395 26.57461654 45.27620331 36.52746167 42 47 C41.34134891 49.16280463 40.69215403 51.32857629 40.0625 53.5 C39.82660156 54.2734375 39.59070313 55.046875 39.34765625 55.84375 C38.66912264 60.05218317 39.9596497 63.23237853 42.0625 66.8125 C44.31994083 71.18732146 44.55334556 74.09893937 44 79 C42.44297623 83.6710713 40.08369647 86.4321095 36.02734375 89.08203125 C32.3442065 90.74973309 28.92942687 90.77441259 25 90 C19.89608319 87.39989144 16.18481191 83.87350935 13.98046875 78.52734375 C10.93559302 74.64167393 7.16404638 74.16299057 2.5 73 C1.57179443 72.75000244 0.64358887 72.50000488 -0.31274414 72.24243164 C-4.99353879 70.99075277 -9.69402484 69.82665884 -14.40234375 68.68359375 C-15.25054687 68.47283203 -16.09875 68.26207031 -16.97265625 68.04492188 C-18.5715633 67.65089645 -20.17438601 67.27231472 -21.78125 66.91210938 C-27.71963735 65.46155091 -31.83247901 63.21995893 -35.3515625 57.9921875 C-37.06160348 52.73844713 -36.74917058 47.55596967 -34.375 42.625 C-30.85455137 38.73397783 -28.05418867 36.2765254 -22.75 35.5625 C-19.51350668 35.94009089 -16.85723146 36.57198667 -13.765625 37.52734375 C-12.87133789 37.8018335 -11.97705078 38.07632324 -11.05566406 38.35913086 C-10.37729492 38.57061768 -9.69892578 38.78210449 -9 39 C-9.32798584 38.47156494 -9.65597168 37.94312988 -9.99389648 37.39868164 C-11.49218013 34.9633399 -12.96478232 32.51337961 -14.4375 30.0625 C-14.95376953 29.23169922 -15.47003906 28.40089844 -16.00195312 27.54492188 C-19.21843279 22.14207695 -21.28561548 17.38813221 -21 11 C-19.14050742 5.5248274 -16.01294188 2.76792457 -11.109375 -0.109375 C-7.32069795 -1.70903865 -3.88804329 -1.06639688 0 0 Z " fill="#FCBC3F" transform="translate(77,392)"/>
<path d="M0 0 C0.66 0.66 1.32 1.32 2 2 C4.50322859 2.1289969 4.50322859 2.1289969 7.3125 1.9375 C11.78952544 1.86736383 14.51095535 1.93386985 18 5 C20.97126495 8.38394063 22.86451915 10.59592576 23.30078125 15.1171875 C22.93251914 19.87111655 21.42181347 22.98506366 19.1875 27.125 C18.83107422 27.81464844 18.47464844 28.50429688 18.10742188 29.21484375 C16.19375274 32.88768397 14.17474471 36.47375778 12 40 C13.7634375 39.505 13.7634375 39.505 15.5625 39 C20.76986811 37.72341417 25.06457203 37.27895821 30.1875 39.1875 C33.80761046 41.52046007 36.07772378 44.15544755 38 48 C38.41593526 52.51929654 38.55848834 56.64787033 36.8125 60.875 C32.86901243 65.49839922 29.16828727 67.55136788 23.30078125 69.03515625 C22.66569138 69.1999498 22.0306015 69.36474335 21.37626648 69.53453064 C19.35784278 70.05578085 17.33558768 70.55969076 15.3125 71.0625 C13.97430118 71.40308822 12.63640695 71.7448756 11.29882812 72.08789062 C10.31876045 72.33900856 10.31876045 72.33900856 9.31889343 72.59519958 C6.21174935 73.39352006 3.10605071 74.19743775 0 75 C-1.51944214 75.37499634 -1.51944214 75.37499634 -3.06958008 75.75756836 C-8.08210213 77.04371144 -8.08210213 77.04371144 -12.11328125 80.12109375 C-12.70689453 81.26771484 -12.70689453 81.26771484 -13.3125 82.4375 C-15.8411597 86.84295528 -18.38615647 89.69307823 -23 92 C-28.45783298 92.42806533 -32.22137346 91.70488295 -37 89 C-41.15605014 83.75025246 -42.54730995 79.67718139 -42 73 C-41.12050477 70.92918851 -40.11525381 69.02693568 -38.97265625 67.08984375 C-36.30787718 61.36431443 -37.27687734 56.89951877 -39.1875 51.125 C-39.65601586 49.61661953 -40.12210495 48.10748344 -40.5859375 46.59765625 C-40.82280273 45.83469238 -41.05966797 45.07172852 -41.30371094 44.28564453 C-48.41925231 20.92810655 -48.41925231 20.92810655 -44.3125 12.5625 C-41.17414476 9.08486311 -39.20693511 7.273336 -34.4453125 6.68359375 C-29.81803113 6.48922285 -26.71670768 6.65444451 -22.5 8.6875 C-17.36104511 13.44103327 -16.23578676 18.32675152 -15 25 C-14.40832031 23.98679687 -13.81664062 22.97359375 -13.20703125 21.9296875 C-12.40913579 20.57795872 -11.61094279 19.22640555 -10.8125 17.875 C-10.42513672 17.20984375 -10.03777344 16.5446875 -9.63867188 15.859375 C-7.69854603 12.58841903 -5.72169273 9.55281338 -3.25 6.65625 C-1.21027642 4.248243 -0.35394335 3.06750907 0 0 Z " fill="#FCBD3F" transform="translate(433,390)"/>
<path d="M0 0 C2.92233844 1.57897211 5.58492134 3.34643955 8.2890625 5.2734375 C18.92514203 12.04742475 34.19473987 10.95323021 46.1015625 8.765625 C51.53694219 7.32986433 56.63153777 4.92524123 61.00390625 1.37109375 C64.45636586 -1.0003609 67.98356891 -0.73610748 72 0 C75.17629821 2.00949478 76.60970217 3.39377433 77.5078125 7.08984375 C77.82951576 11.18106999 77.30874077 14.27954829 74.875 17.625 C65.89740979 26.75115553 51.23195024 30.98285748 38.8203125 31.43359375 C36.25526477 31.45065906 33.69006515 31.45170731 31.125 31.4375 C29.85269531 31.45748047 28.58039063 31.47746094 27.26953125 31.49804688 C12.57932644 31.49054422 -1.10921469 27.21011123 -12 17 C-14.51959805 13.52055507 -14.44144127 10.19369206 -14 6 C-10.35796038 0.41553925 -6.63156497 -1.34988237 0 0 Z " fill="#030200" transform="translate(224,268)"/>
<path d="M0 0 C8.25350389 4.93365875 16.21530457 10.81058178 18.859375 20.359375 C18.199375 20.029375 17.539375 19.699375 16.859375 19.359375 C16.859375 18.699375 16.859375 18.039375 16.859375 17.359375 C12.73723745 15.98532915 9.16270443 15.62166138 4.859375 16.359375 C2.4416327 17.67210106 0.32619883 19.19633882 -1.88671875 20.828125 C-12.14892174 27.80002027 -27.12580446 27.4532373 -38.890625 25.609375 C-45.10042564 24.34060998 -50.03520298 22.00709658 -55.015625 18.109375 C-59.39454294 15.65718096 -63.2312797 16.01009352 -68.140625 16.359375 C-61.67716342 4.66841158 -48.76589579 -2.32883186 -36.55078125 -6.71484375 C-23.25331074 -10.32480997 -11.72041794 -6.12260639 0 0 Z " fill="#FBBC40" transform="translate(282.140625,252.640625)"/>
<path d="M0 0 C0.33 0 0.66 0 1 0 C1.68375512 4.71031302 1.9608241 7.50084183 -0.65234375 11.578125 C-10.4885558 22.84914479 -25.69765591 33.10617051 -40.95703125 34.21484375 C-56.46444857 34.66616556 -70.48860466 28.29588602 -81.9375 18 C-83.30664843 16.6820555 -84.6672302 15.3547213 -86 14 C-85.67 13.34 -85.34 12.68 -85 12 C-84.47792969 12.38671875 -83.95585937 12.7734375 -83.41796875 13.171875 C-67.4292717 24.48436818 -47.13666481 25.28602751 -28.1875 22.6015625 C-18.69905055 20.57278219 -9.49026644 16.27122905 -2.4375 9.5625 C-0.65368296 6.38265224 -0.28312459 3.60983849 0 0 Z " fill="#F6B93F" transform="translate(301,275)"/>
</svg>
